<svg id="Layer_1" data-name="Layer 1" xmlns="http://www.w3.org/2000/svg" viewBox="0 0 300 125"><defs><style>.cls-1{fill:#fff;}</style></defs><path class="cls-1" d="M165.43,47.54h-6.87V59.83h7.77l-.4,2.67H155.66V32h10.16V34.7h-7.26V44.88h6.87Z"/><path class="cls-1" d="M183.89,49.46c0-5.69.11-11.61.2-14.82H184c-.77,5.08-3.25,18.75-4.95,27.86h-2.88c-1.3-7.82-3.86-22.47-4.61-27.88h-.09c.09,3.53.26,10.46.26,15.67V62.5h-2.72V32h4.29c1.78,9.31,4,21.07,4.38,24.87h0c.47-3.68,3-16.11,4.74-24.87h4.22V62.5h-2.83Z"/><path class="cls-1" d="M194.22,32V62.5h-2.9V32Z"/><path class="cls-1" d="M198.85,32h2.9V59.88h7.67l-.36,2.62H198.85Z"/><path class="cls-1" d="M214.35,32V62.5h-2.91V32Z"/><path class="cls-1" d="M221.66,52.4l-1.55,10.1h-2.93l5-30.49h4.15L231.6,62.5h-3L226.9,52.4Zm4.86-2.67c-1.16-7.07-1.94-12.32-2.22-15.07h-.12c-.11,2.32-1.24,9.25-2.12,15.07Z"/><path class="cls-1" d="M234.31,62.5V32h3.5c1.74,6,6.12,22.17,6.66,24.86h.08c-.17-4.18-.23-8.47-.23-13.43V32h2.76V62.5h-3.39c-1.78-6.21-6.22-23-6.87-25.7h0c.2,3.67.3,8.71.3,14.22V62.5Z"/><path class="cls-1" d="M263.81,39.36V55c0,5.24-2.14,7.91-6.54,7.91-4.66,0-6.27-3-6.27-7.88V39.38c0-5,2.22-7.76,6.47-7.76C262,31.62,263.81,34.79,263.81,39.36ZM254,39.29V55.22c0,3.64,1.32,5,3.45,5s3.44-1.37,3.44-5.2V39.3c0-3.43-1.2-5-3.47-5S254,35.79,254,39.29Z"/><path class="cls-1" d="M160.91,85.23H154v12.3h7.77l-.4,2.66H151.14V69.71h10.17v2.68H154V82.57h6.87Z"/><path class="cls-1" d="M166.55,91.7v1.74c0,3,1.07,4.61,3.29,4.61s3.22-1.54,3.22-5.2-.8-5.11-4-7.6-4.89-4-4.89-8.54c0-3.82,1.14-7.45,5.76-7.42,4.28,0,5.56,2.82,5.56,6.82v1.37H172.6V76.19c0-2.63-.52-4.34-2.73-4.34s-2.8,2-2.8,4.43c0,3,.6,4.07,3.42,6.22,4.16,3.16,5.49,4.9,5.49,10,0,4.27-1.16,8.13-6.18,8.13-4.75,0-6.15-3.14-6.15-7.15V91.7Z"/><path class="cls-1" d="M191.12,91.53v1c0,4-.73,8.06-6,8.06s-6-3.79-6-8.23V76.82c0-4.92,2.09-7.51,6.06-7.51,5,0,5.85,3.6,5.85,7.53V78h-3V76.68c0-2.51-.35-4.72-3-4.72-2.44,0-3,2-3,4.8V92.52c0,3.31.73,5.44,3.14,5.44s3-2.24,3-5.25V91.53Z"/><path class="cls-1" d="M206.85,77.05V92.68c0,5.24-2.14,7.91-6.54,7.91-4.66,0-6.27-3-6.27-7.88V77.07c0-5,2.22-7.76,6.48-7.76C205,69.31,206.85,72.48,206.85,77.05ZM197,77V92.91c0,3.64,1.33,5,3.46,5s3.43-1.38,3.43-5.21V77c0-3.43-1.2-5-3.46-5S197,73.48,197,77Z"/><path class="cls-1" d="M210.85,69.71h5.08c4.61,0,6.32,2.49,6.32,6.55V77.7c0,4.27-1.25,5.59-2.83,6.17,1.73.52,3.47,2,3.47,6.12v2.24c0,5.34-1.76,8-6.93,8h-5.11Zm5,13c2.75,0,3.59-1.17,3.59-4.84V76.47c0-2.82-1.05-4.27-3.75-4.27h-2V82.72Zm-2.19,15h2.05c3.41,0,4.25-1.66,4.25-5.54V90.05c0-3.41-1.26-4.87-4.18-4.87h-2.12Z"/><path class="cls-1" d="M236.12,85.23h-6.87v12.3H237l-.4,2.66H226.35V69.71h10.17v2.68h-7.27V82.57h6.87Z"/><path class="cls-1" d="M239.69,69.71H245c6.61,0,7.27,4.24,7.27,8.89V90.72c0,4.68-.7,9.47-7.52,9.47h-5.05Zm2.91,28h1.91c3.84,0,4.79-2.11,4.79-6.3V78.2c0-3.69-.66-5.94-4.75-5.94h-2Z"/><path class="cls-1" d="M268.33,77.05V92.68c0,5.24-2.14,7.91-6.54,7.91-4.67,0-6.27-3-6.27-7.88V77.07c0-5,2.22-7.76,6.47-7.76C266.47,69.31,268.33,72.48,268.33,77.05ZM258.48,77V92.91c0,3.64,1.32,5,3.45,5s3.44-1.38,3.44-5.21V77c0-3.43-1.2-5-3.47-5S258.48,73.48,258.48,77Z"/><polygon class="cls-1" points="64.9 111.44 31.67 111.44 31.67 13.56 64.9 13.56 64.9 24.56 42.67 24.56 42.67 100.44 64.9 100.44 64.9 111.44"/><polygon class="cls-1" points="128.14 111.44 94.91 111.44 94.91 100.44 117.14 100.44 117.14 24.56 94.91 24.56 94.91 13.56 128.14 13.56 128.14 111.44"/><rect class="cls-1" x="54.84" y="57" width="50.13" height="11"/></svg>